<svg width="1684" height="1684" fill="none" xmlns="http://www.w3.org/2000/svg"><rect width="1684" height="1684" rx="842" fill="#000"/><path d="M437.7 698H225.3V493.4h211.5c15.4 0 27.7 2 36.9 6 9.4 4 16.2 9.8 20.4 17.4 4.2 7.6 6.3 16.8 6.3 27.6-.2 13.4-4.1 24.4-11.7 33-7.6 8.6-18.9 13.8-33.9 15.6v-3.9c17.8 1.6 31.1 7 39.9 16.2 9 9 13.5 21.8 13.5 38.4 0 12.2-2.5 22.4-7.5 30.6-4.8 8-12.4 14-22.8 18-10.2 3.8-23.6 5.7-40.2 5.7Zm-3.3-89.7H261.3v63.3h170.1c15 0 25.8-2.3 32.4-6.9 6.6-4.8 9.9-13.1 9.9-24.9 0-11.8-3.5-20-10.5-24.6-6.8-4.6-16.4-6.9-28.8-6.9Zm-6.6-86.4H261.3v59.7h169.8c6.6 0 12.5-1 17.7-3 5.4-2.2 9.6-5.5 12.6-9.9 3.2-4.4 4.8-10.1 4.8-17.1 0-10.2-3-17.7-9-22.5-6-4.8-15.8-7.2-29.4-7.2ZM809.243 698h-264.9V493.4h264.9v29.4h-228.3v58.5h222.6v24.9h-222.6v62.4h228.3V698ZM337.8 777.9H214.5v-31.5h283.2v31.5H374.4V951h-36.6V777.9ZM566.002 951h-36.6V746.4h36.6v82.5h207.6v-82.5h36.6V951h-36.6v-90.3h-207.6V951Zm551.738 0H852.839V746.4h264.901v29.4H889.439v58.5h222.601v24.9H889.439v62.4h228.301V951ZM281.1 1204h-60.9V999.4h204.9c12.6 0 24.1 1.3 34.5 3.9 10.6 2.4 19.7 6.3 27.3 11.7 7.6 5.4 13.4 12.7 17.4 21.9 4.2 9.2 6.3 20.5 6.3 33.9 0 15-2.9 27.5-8.7 37.5-5.6 10-13.8 17.7-24.6 23.1-10.6 5.2-23.5 8.4-38.7 9.6l-13.2.3 16.2 9.9 67.2 52.8h-76.5l-73.5-59.4h-77.7v59.4Zm0-152.4v47.4h138c10.2 0 17.5-1.8 21.9-5.4 4.4-3.6 6.6-9.6 6.6-18 0-9.2-2.2-15.5-6.6-18.9-4.4-3.4-11.7-5.1-21.9-5.1h-138Zm517.763 112.8h-216.9v-42.3h216.9v42.3Zm-88.5-165-1.2 10.2-121.5 194.4h-73.201l133.201-204.6h62.7Zm78 204.6-121.5-194.4-.6-10.2h62.7l133.2 204.6h-73.8Zm147.522 0h-60.9V999.4h204.905c12.6 0 24.1 1.3 34.5 3.9 10.6 2.4 19.7 6.3 27.3 11.7 7.6 5.4 13.4 12.7 17.4 21.9 4.2 9.2 6.3 20.5 6.3 33.9 0 15-2.9 27.5-8.7 37.5-5.6 10-13.8 17.7-24.6 23.1-10.6 5.2-23.5 8.4-38.7 9.6l-13.2.3 16.2 9.9 67.2 52.8h-76.5l-73.5-59.4h-77.705v59.4Zm0-152.4v47.4h138.005c10.2 0 17.5-1.8 21.9-5.4 4.4-3.6 6.6-9.6 6.6-18 0-9.2-2.2-15.5-6.6-18.9-4.4-3.4-11.7-5.1-21.9-5.1H935.885ZM1464.98 1204h-273V999.4h273v47.7h-212.1v33.9h206.4v39.3h-206.4v36h212.1v47.7Z" fill="#fff"/></svg>