<svg width="2181" height="160" fill="none" xmlns="http://www.w3.org/2000/svg"><path d="M166.286 160H.614V.412h164.97c12.012 0 21.606 1.56 28.782 4.68 7.332 3.12 12.636 7.644 15.912 13.572 3.276 5.928 4.914 13.104 4.914 21.528-.156 10.452-3.198 19.032-9.126 25.74-5.928 6.708-14.742 10.764-26.442 12.168v-3.042c13.884 1.248 24.258 5.46 31.122 12.636 7.02 7.02 10.53 17.004 10.53 29.952 0 9.516-1.95 17.472-5.85 23.868-3.744 6.24-9.672 10.92-17.784 14.04-7.956 2.964-18.408 4.446-31.356 4.446Zm-2.574-69.966H28.694v49.374h132.678c11.7 0 20.124-1.794 25.272-5.382 5.148-3.744 7.722-10.218 7.722-19.422s-2.73-15.6-8.19-19.188c-5.304-3.588-12.792-5.382-22.464-5.382Zm-5.148-67.392H28.694v46.566h132.444c5.148 0 9.75-.78 13.806-2.34 4.212-1.716 7.488-4.29 9.828-7.722 2.496-3.432 3.744-7.878 3.744-13.338 0-7.956-2.34-13.806-7.02-17.55-4.68-3.744-12.324-5.616-22.932-5.616ZM456.09 160H249.468V.412H456.09v22.932H278.016v45.63h173.628v19.422H278.016v48.672H456.09V160ZM574.645 24.982h-96.174V.412h220.896v24.57h-96.174V160h-28.548V24.982ZM752.642 160h-28.548V.412h28.548v64.35H914.57V.412h28.548V160H914.57V89.566H752.642V160ZM1183 160H976.376V.412H1183v22.932h-178.08v45.63h173.63v19.422h-173.63v48.672H1183V160Zm74.33 0h-47.5V.412h159.82c9.83 0 18.8 1.014 26.91 3.042 8.27 1.872 15.36 4.914 21.29 9.126s10.45 9.906 13.57 17.082c3.28 7.176 4.92 15.99 4.92 26.442 0 11.7-2.26 21.45-6.79 29.25-4.37 7.8-10.76 13.806-19.19 18.018-8.26 4.056-18.33 6.552-30.18 7.488l-10.3.234 12.64 7.722L1434.93 160h-59.67l-57.33-46.332h-60.6V160Zm0-118.872V78.1h107.64c7.95 0 13.65-1.404 17.08-4.212 3.43-2.808 5.15-7.488 5.15-14.04 0-7.176-1.72-12.09-5.15-14.742-3.43-2.652-9.13-3.978-17.08-3.978h-107.64Zm403.85 87.984H1492V96.118h169.18v32.994ZM1592.15.412l-.93 7.956L1496.45 160h-57.1L1543.25.412h48.9ZM1652.99 160 1558.22 8.368l-.47-7.956h48.91L1710.56 160h-57.57Zm115.07 0h-47.5V.412h159.82c9.83 0 18.8 1.014 26.91 3.042 8.27 1.872 15.37 4.914 21.29 9.126 5.93 4.212 10.46 9.906 13.58 17.082 3.27 7.176 4.91 15.99 4.91 26.442 0 11.7-2.26 21.45-6.79 29.25-4.36 7.8-10.76 13.806-19.18 18.018-8.27 4.056-18.33 6.552-30.19 7.488l-10.3.234 12.64 7.722L1945.67 160H1886l-57.33-46.332h-60.61V160Zm0-118.872V78.1h107.64c7.96 0 13.65-1.404 17.08-4.212 3.43-2.808 5.15-7.488 5.15-14.04 0-7.176-1.72-12.09-5.15-14.742-3.43-2.652-9.12-3.978-17.08-3.978h-107.64ZM2180.75 160h-212.94V.412h212.94v37.206h-165.44V64.06h161v30.654h-161v28.08h165.44V160Z" fill="#fff"/></svg>