<svg width="1684" height="1684" fill="none" xmlns="http://www.w3.org/2000/svg"><rect width="1684" height="1684" rx="842" fill="#000"/><path d="M512.741 1272H266.502V444.734h828.478c50.95 0 97.45 5.256 139.5 15.769 42.86 9.704 79.65 25.473 110.38 47.307 30.73 21.834 54.18 51.35 70.35 88.549 16.99 37.199 25.48 82.888 25.48 137.069 0 60.65-11.73 111.192-35.18 151.625-22.64 40.433-55.8 71.567-99.47 93.401-42.86 21.025-95.02 33.966-156.47 38.816l-53.38 1.21 65.51 40.03L1433.41 1272h-309.32l-297.182-240.17H512.741V1272Zm0-616.204V847.45h557.979c41.24 0 70.76-7.278 88.55-21.834 17.79-14.556 26.69-38.816 26.69-72.78 0-37.199-8.9-62.672-26.69-76.419s-47.31-20.621-88.55-20.621H512.741Z" fill="#fff"/></svg>